# xmcd
#
# Track frame offsets:
#	150
#	9092
#	22417
#	35882
#	46560
#	59417
#	72480
#	88902
#	103700
#	122830
#	133340
#	146357
#	157800
#	168480
#	177465
#	190480
#	204030
#	218697
#	229280
#	238925
#	250190
#	260432
#	276237
#	289267
#	299335
#	309827
#
# Disc length: 4280 seconds
#
# Revision: 1
# Processed by: cddbd v1.5.2PL0 Copyright (c) Steve Scherf et al.
# Submitted via: EZCDAudioConverter 2.1.5.1
#
DISCID=8c10b61a
DTITLE=Anita Carter - Ring Of Fire
DYEAR=1989
DGENRE=Country
TTITLE0=(Love's) Ring Of Fire
TTITLE1=Fair And Tender Ladies
TTITLE2=Satan's Child
TTITLE3=Fly Pretty Swallow 
TTITLE4=As The Swallow Goes
TTITLE5=All My Trials
TTITLE6=Voice Of The Bayou
TTITLE7=Sour Grapes
TTITLE8=Johnny, I Hardly Knew You
TTITLE9=My Love
TTITLE10=A Few Short Years Ago
TTITLE11=The Kentuckian Song
TTITLE12=Brian
TTITLE13=Running Back
TTITLE14=Take Me Home
TTITLE15=No, My Love, No
TTITLE16=Farewell
TTITLE17=This Life I'm Living
TTITLE18=My Love Loves Me
TTITLE19=John, John, John
TTITLE20=John Hardy Was A Desperate Little Man
TTITLE21=I Never Will Marry
TTITLE22=In The Highways
TTITLE23=Bury Me Beneath The Willow
TTITLE24=Beautiful Isle O'er The Sea
TTITLE25=The Wildwood Flower
EXTD=
EXTT0=
EXTT1=
EXTT2=
EXTT3=
EXTT4=
EXTT5=
EXTT6=
EXTT7=
EXTT8=
EXTT9=
EXTT10=
EXTT11=
EXTT12=
EXTT13=
EXTT14=
EXTT15=
EXTT16=
EXTT17=
EXTT18=
EXTT19=
EXTT20=
EXTT21=
EXTT22=
EXTT23=
EXTT24=
EXTT25=
PLAYORDER=
